{
    "asset": {
        "version": "2.0",
        "generator": "Open Asset Import Library (assimp v5.4.536cd598)"
    },
    "extensionsUsed": [
        "KHR_materials_volume",
        "FB_ngon_encoding"
    ],
    "accessors": [
        {
            "bufferView": 0,
            "byteOffset": 0,
            "componentType": 5126,
            "count": 24672,
            "type": "VEC3",
            "max": [
                5.892685890197754,
                5.971062183380127,
                5.887664794921875
            ],
            "min": [
                -5.892704010009766,
                -5.63903284072876,
                -7.715353012084961
            ]
        },
        {
            "bufferView": 1,
            "byteOffset": 0,
            "componentType": 5126,
            "count": 24672,
            "type": "VEC3",
            "max": [
                1.0,
                1.0,
                1.0
            ],
            "min": [
                -1.0,
                -1.0,
                -1.0
            ]
        },
        {
            "bufferView": 2,
            "byteOffset": 0,
            "componentType": 5126,
            "count": 24672,
            "type": "VEC3",
            "max": [
                1.0,
                0.999999463558197,
                0.999997615814209
            ],
            "min": [
                -0.999993085861206,
                -0.9999104738235474,
                -1.0
            ]
        },
        {
            "bufferView": 3,
            "byteOffset": 0,
            "componentType": 5126,
            "count": 24672,
            "type": "VEC2",
            "max": [
                0.9900000095367432,
                0.9900000095367432
            ],
            "min": [
                2.2250738585072014e-308,
                2.2250738585072014e-308
            ]
        },
        {
            "bufferView": 4,
            "byteOffset": 0,
            "componentType": 5125,
            "count": 140448,
            "type": "SCALAR",
            "max": [
                24671
            ],
            "min": [
                0
            ]
        }
    ],
    "buffers": [
        {
            "byteLength": 1647360,
            "uri": "material_ball.bin"
        }
    ],
    "bufferViews": [
        {
            "buffer": 0,
            "byteOffset": 0,
            "byteLength": 296064,
            "target": 34962
        },
        {
            "buffer": 0,
            "byteOffset": 296064,
            "byteLength": 296064,
            "target": 34962
        },
        {
            "buffer": 0,
            "byteOffset": 592128,
            "byteLength": 296064,
            "target": 34962
        },
        {
            "buffer": 0,
            "byteOffset": 888192,
            "byteLength": 197376,
            "target": 34962
        },
        {
            "buffer": 0,
            "byteOffset": 1085568,
            "byteLength": 561792,
            "target": 34963
        }
    ],
    "images": [
        {
            "uri": "../Textures/Embedded_0.png"
        },
        {
            "uri": "../Textures/Embedded_1.png"
        },
        {
            "uri": "../Textures/Embedded_2.png"
        }
    ],
    "materials": [
        {
            "name": "lambert3SG",
            "pbrMetallicRoughness": {
                "baseColorTexture": {
                    "index": 0
                },
                "metallicRoughnessTexture": {
                    "index": 1
                }
            },
            "normalTexture": {
                "index": 2
            },
            "occlusionTexture": {
                "index": 1,
                "strength": 0.800000011920929
            },
            "doubleSided": true
        },
        {
            "name": "material"
        }
    ],
    "meshes": [
        {
            "name": "Object_0",
            "primitives": [
                {
                    "mode": 4,
                    "material": 0,
                    "indices": 4,
                    "attributes": {
                        "POSITION": 0,
                        "NORMAL": 1,
                        "TANGENT": 2,
                        "TEXCOORD_0": 3
                    }
                }
            ]
        }
    ],
    "nodes": [
        {
            "name": "sketchfab:model",
            "matrix": [
                1.0,
                0.0,
                0.0,
                0.0,
                0.0,
                2.220446049250313e-16,
                -1.0,
                0.0,
                0.0,
                1.0,
                2.220446049250313e-16,
                0.0,
                0.0,
                0.0,
                0.0,
                1.0
            ],
            "children": [
                1
            ]
        },
        {
            "name": "export3dcoat:obj:cleaner",
            "children": [
                2
            ]
        },
        {
            "name": "object:2",
            "mesh": 0
        }
    ],
    "samplers": [
        {
            "magFilter": 9729,
            "minFilter": 9987
        }
    ],
    "scenes": [
        {
            "nodes": [
                0
            ]
        }
    ],
    "textures": [
        {
            "source": 0,
            "sampler": 0
        },
        {
            "source": 1,
            "sampler": 0
        },
        {
            "source": 2,
            "sampler": 0
        }
    ],
    "scene": 0
}