{
    "asset": {
        "version": "2.0",
        "generator": "Open Asset Import Library (assimp v5.2.0)"
    },
    "extensionsUsed": [
        "KHR_materials_volume",
        "FB_ngon_encoding"
    ],
    "accessors": [
        {
            "bufferView": 0,
            "byteOffset": 0,
            "componentType": 5126,
            "count": 7016,
            "type": "VEC3",
            "max": [
                68.10273742675781,
                277.08453369140627,
                267.9559020996094
            ],
            "min": [
                -123.34906005859375,
                -109.03875732421875,
                5.843043327331543
            ]
        },
        {
            "bufferView": 1,
            "byteOffset": 0,
            "componentType": 5126,
            "count": 7016,
            "type": "VEC3",
            "max": [
                0.9999954700469971,
                0.9999997019767761,
                0.9999739527702332
            ],
            "min": [
                -1.0,
                -0.9999997615814209,
                -0.9999483227729797
            ]
        },
        {
            "bufferView": 2,
            "byteOffset": 0,
            "componentType": 5126,
            "count": 7016,
            "type": "VEC2",
            "max": [
                0.9973000288009644,
                0.9970999956130981
            ],
            "min": [
                -0.9954000115394592,
                0.0026000142097473146
            ]
        },
        {
            "bufferView": 3,
            "byteOffset": 0,
            "componentType": 5125,
            "count": 33951,
            "type": "SCALAR",
            "max": [
                7015
            ],
            "min": [
                0
            ]
        },
        {
            "bufferView": 4,
            "byteOffset": 0,
            "componentType": 5126,
            "count": 1829,
            "type": "VEC3",
            "max": [
                35.30927658081055,
                34.818084716796878,
                289.16107177734377
            ],
            "min": [
                -36.48139572143555,
                -65.39677429199219,
                186.9889678955078
            ]
        },
        {
            "bufferView": 5,
            "byteOffset": 0,
            "componentType": 5126,
            "count": 1829,
            "type": "VEC3",
            "max": [
                0.9982403516769409,
                0.9992940425872803,
                0.9999661445617676
            ],
            "min": [
                -0.9961392283439636,
                -0.9995278716087341,
                -0.9985924959182739
            ]
        },
        {
            "bufferView": 6,
            "byteOffset": 0,
            "componentType": 5126,
            "count": 1829,
            "type": "VEC2",
            "max": [
                0.9977999925613403,
                0.996399998664856
            ],
            "min": [
                0.003599999938160181,
                0.006699979305267334
            ]
        },
        {
            "bufferView": 7,
            "byteOffset": 0,
            "componentType": 5125,
            "count": 8970,
            "type": "SCALAR",
            "max": [
                1828
            ],
            "min": [
                0
            ]
        }
    ],
    "buffers": [
        {
            "byteLength": 454724,
            "uri": "scene.bin"
        }
    ],
    "bufferViews": [
        {
            "buffer": 0,
            "byteOffset": 0,
            "byteLength": 84192,
            "target": 34962
        },
        {
            "buffer": 0,
            "byteOffset": 84192,
            "byteLength": 84192,
            "target": 34962
        },
        {
            "buffer": 0,
            "byteOffset": 168384,
            "byteLength": 56128,
            "target": 34962
        },
        {
            "buffer": 0,
            "byteOffset": 224512,
            "byteLength": 135804,
            "target": 34963
        },
        {
            "buffer": 0,
            "byteOffset": 360316,
            "byteLength": 21948,
            "target": 34962
        },
        {
            "buffer": 0,
            "byteOffset": 382264,
            "byteLength": 21948,
            "target": 34962
        },
        {
            "buffer": 0,
            "byteOffset": 404212,
            "byteLength": 14632,
            "target": 34962
        },
        {
            "buffer": 0,
            "byteOffset": 418844,
            "byteLength": 35880,
            "target": 34963
        }
    ],
    "images": [
        {
            "uri": "../Textures/Texture_Diffuse_0.jpg"
        },
        {
            "uri": "*5"
        },
        {
            "uri": "../Textures/Texture_Normals_0.jpg"
        },
        {
            "uri": "../Textures/Texture_Diffuse_1.jpg"
        },
        {
            "uri": "*11"
        },
        {
            "uri": "../Textures/Texture_Normals_1.jpg"
        }
    ],
    "materials": [
        {
            "name": "07_-_Default",
            "pbrMetallicRoughness": {
                "baseColorTexture": {
                    "index": 0
                },
                "metallicRoughnessTexture": {
                    "index": 1
                },
                "baseColorFactor": [
                    0.3187881112098694,
                    0.3187881112098694,
                    0.3187881112098694,
                    1.0
                ],
                "metallicFactor": 0.6358612775802612,
                "roughnessFactor": 0.21779724955558778
            },
            "normalTexture": {
                "index": 2
            },
            "doubleSided": true
        },
        {
            "name": "default",
            "pbrMetallicRoughness": {
                "baseColorTexture": {
                    "index": 3
                },
                "metallicRoughnessTexture": {
                    "index": 4
                },
                "roughnessFactor": 0.2543826103210449
            },
            "normalTexture": {
                "index": 5
            },
            "doubleSided": true
        },
        {
            "name": "material"
        }
    ],
    "meshes": [
        {
            "name": "body_07 - Default_0",
            "primitives": [
                {
                    "mode": 4,
                    "material": 0,
                    "indices": 3,
                    "attributes": {
                        "POSITION": 0,
                        "NORMAL": 1,
                        "TEXCOORD_0": 2
                    }
                }
            ]
        },
        {
            "name": "head_default_0",
            "primitives": [
                {
                    "mode": 4,
                    "material": 1,
                    "indices": 7,
                    "attributes": {
                        "POSITION": 4,
                        "NORMAL": 5,
                        "TEXCOORD_0": 6
                    }
                }
            ]
        }
    ],
    "nodes": [
        {
            "name": "Sketchfab_model",
            "matrix": [
                1.0,
                0.0,
                0.0,
                0.0,
                0.0,
                2.220446049250313e-16,
                -1.0,
                0.0,
                0.0,
                1.0,
                2.220446049250313e-16,
                0.0,
                0.0,
                0.0,
                0.0,
                1.0
            ],
            "children": [
                1
            ]
        },
        {
            "name": "49da11f1aafb41c5b81b8f5808aec52e.fbx",
            "matrix": [
                1.0,
                0.0,
                0.0,
                0.0,
                0.0,
                0.0,
                1.0,
                0.0,
                0.0,
                -1.0,
                0.0,
                0.0,
                0.0,
                0.0,
                0.0,
                1.0
            ],
            "children": [
                2
            ]
        },
        {
            "name": "RootNode",
            "children": [
                3,
                5
            ]
        },
        {
            "name": "body",
            "matrix": [
                1.0,
                0.0,
                0.0,
                0.0,
                0.0,
                2.220446049250313e-16,
                -1.0,
                0.0,
                0.0,
                1.0,
                2.220446049250313e-16,
                0.0,
                0.0,
                -6.432251930236816,
                -2.811626700349734e-7,
                1.0
            ],
            "children": [
                4
            ]
        },
        {
            "name": "body_07 - Default_0",
            "mesh": 0
        },
        {
            "name": "head",
            "matrix": [
                1.0,
                0.0,
                0.0,
                0.0,
                0.0,
                2.220446049250313e-16,
                -1.0,
                0.0,
                0.0,
                1.0,
                2.220446049250313e-16,
                0.0,
                0.0,
                -6.432251930236816,
                -2.811626700349734e-7,
                1.0
            ],
            "children": [
                6
            ]
        },
        {
            "name": "head_default_0",
            "mesh": 1
        }
    ],
    "samplers": [
        {
            "magFilter": 9729,
            "minFilter": 9987
        }
    ],
    "scenes": [
        {
            "nodes": [
                0
            ]
        }
    ],
    "textures": [
        {
            "source": 0,
            "sampler": 0
        },
        {
            "source": 1,
            "sampler": 0
        },
        {
            "source": 2,
            "sampler": 0
        },
        {
            "source": 3,
            "sampler": 0
        },
        {
            "source": 4,
            "sampler": 0
        },
        {
            "source": 5,
            "sampler": 0
        }
    ],
    "scene": 0
}