{
    "asset": {
        "version": "2.0",
        "generator": "Open Asset Import Library (assimp v5.2.0)"
    },
    "extensionsUsed": [
        "KHR_materials_volume",
        "FB_ngon_encoding"
    ],
    "accessors": [
        {
            "bufferView": 0,
            "byteOffset": 0,
            "componentType": 5126,
            "count": 16869,
            "type": "VEC3",
            "max": [
                1.2654759883880616,
                1.6306440830230713,
                1.7221660614013672
            ],
            "min": [
                -1.2654759883880616,
                -1.6306440830230713,
                -1.7221660614013672
            ]
        },
        {
            "bufferView": 1,
            "byteOffset": 0,
            "componentType": 5126,
            "count": 16869,
            "type": "VEC3",
            "max": [
                0.999816358089447,
                0.9999998807907105,
                0.9999078512191773
            ],
            "min": [
                -0.9996094107627869,
                -0.9999987483024597,
                -0.9999866485595703
            ]
        },
        {
            "bufferView": 2,
            "byteOffset": 0,
            "componentType": 5126,
            "count": 16869,
            "type": "VEC2",
            "max": [
                1.0034892559051514,
                0.9329021573066711
            ],
            "min": [
                0.0,
                0.0
            ]
        },
        {
            "bufferView": 3,
            "byteOffset": 0,
            "componentType": 5126,
            "count": 16869,
            "type": "VEC2",
            "max": [
                1.0034892559051514,
                0.9329021573066711
            ],
            "min": [
                0.0,
                0.0
            ]
        },
        {
            "bufferView": 4,
            "byteOffset": 0,
            "componentType": 5126,
            "count": 16869,
            "type": "VEC2",
            "max": [
                1.0034892559051514,
                0.9329021573066711
            ],
            "min": [
                0.0,
                0.0
            ]
        },
        {
            "bufferView": 5,
            "byteOffset": 0,
            "componentType": 5126,
            "count": 16869,
            "type": "VEC2",
            "max": [
                1.0034892559051514,
                0.9329021573066711
            ],
            "min": [
                0.0,
                0.0
            ]
        },
        {
            "bufferView": 6,
            "byteOffset": 0,
            "componentType": 5126,
            "count": 16869,
            "type": "VEC2",
            "max": [
                1.0034892559051514,
                0.9329021573066711
            ],
            "min": [
                0.0,
                0.0
            ]
        },
        {
            "bufferView": 7,
            "byteOffset": 0,
            "componentType": 5126,
            "count": 16869,
            "type": "VEC2",
            "max": [
                1.0034892559051514,
                0.9329021573066711
            ],
            "min": [
                0.0,
                0.0
            ]
        },
        {
            "bufferView": 8,
            "byteOffset": 0,
            "componentType": 5126,
            "count": 16869,
            "type": "VEC2",
            "max": [
                1.0034892559051514,
                0.9329021573066711
            ],
            "min": [
                0.0,
                0.0
            ]
        },
        {
            "bufferView": 9,
            "byteOffset": 0,
            "componentType": 5126,
            "count": 16869,
            "type": "VEC2",
            "max": [
                1.0034892559051514,
                0.9329021573066711
            ],
            "min": [
                0.0,
                0.0
            ]
        },
        {
            "bufferView": 10,
            "byteOffset": 0,
            "componentType": 5125,
            "count": 96246,
            "type": "SCALAR",
            "max": [
                16868
            ],
            "min": [
                0
            ]
        }
    ],
    "buffers": [
        {
            "byteLength": 1869456,
            "uri": "scene.bin"
        }
    ],
    "bufferViews": [
        {
            "buffer": 0,
            "byteOffset": 0,
            "byteLength": 202428,
            "target": 34962
        },
        {
            "buffer": 0,
            "byteOffset": 202428,
            "byteLength": 202428,
            "target": 34962
        },
        {
            "buffer": 0,
            "byteOffset": 404856,
            "byteLength": 134952,
            "target": 34962
        },
        {
            "buffer": 0,
            "byteOffset": 539808,
            "byteLength": 134952,
            "target": 34962
        },
        {
            "buffer": 0,
            "byteOffset": 674760,
            "byteLength": 134952,
            "target": 34962
        },
        {
            "buffer": 0,
            "byteOffset": 809712,
            "byteLength": 134952,
            "target": 34962
        },
        {
            "buffer": 0,
            "byteOffset": 944664,
            "byteLength": 134952,
            "target": 34962
        },
        {
            "buffer": 0,
            "byteOffset": 1079616,
            "byteLength": 134952,
            "target": 34962
        },
        {
            "buffer": 0,
            "byteOffset": 1214568,
            "byteLength": 134952,
            "target": 34962
        },
        {
            "buffer": 0,
            "byteOffset": 1349520,
            "byteLength": 134952,
            "target": 34962
        },
        {
            "buffer": 0,
            "byteOffset": 1484472,
            "byteLength": 384984,
            "target": 34963
        }
    ],
    "images": [
        {
            "uri": "../Textures/Texture_Diffuse_0.jpg"
        },
        {
            "uri": "*5"
        },
        {
            "uri": "../Textures/Texture_Normals_0.jpg"
        }
    ],
    "materials": [
        {
            "name": "pava_low_UV_Pava",
            "pbrMetallicRoughness": {
                "baseColorTexture": {
                    "index": 0
                },
                "metallicRoughnessTexture": {
                    "index": 1
                }
            },
            "normalTexture": {
                "index": 2
            },
            "doubleSided": true
        },
        {
            "name": "material"
        }
    ],
    "meshes": [
        {
            "name": "pava_low_UV:pava6_1_pava_low_UV_Pava_0",
            "primitives": [
                {
                    "mode": 4,
                    "material": 0,
                    "indices": 10,
                    "attributes": {
                        "POSITION": 0,
                        "NORMAL": 1,
                        "TEXCOORD_0": 2,
                        "TEXCOORD_1": 3,
                        "TEXCOORD_2": 4,
                        "TEXCOORD_3": 5,
                        "TEXCOORD_4": 6,
                        "TEXCOORD_5": 7,
                        "TEXCOORD_6": 8,
                        "TEXCOORD_7": 9
                    }
                }
            ]
        }
    ],
    "nodes": [
        {
            "name": "Sketchfab_model",
            "matrix": [
                1.0,
                0.0,
                0.0,
                0.0,
                0.0,
                2.220446049250313e-16,
                -1.0,
                0.0,
                0.0,
                1.0,
                2.220446049250313e-16,
                0.0,
                0.0,
                0.0,
                0.0,
                1.0
            ],
            "children": [
                1
            ]
        },
        {
            "name": "f6314d8442e645ffb37b81b9be86d8ce.fbx",
            "matrix": [
                0.009999999776482582,
                0.0,
                0.0,
                0.0,
                0.0,
                0.0,
                0.009999999776482582,
                0.0,
                0.0,
                -0.009999999776482582,
                0.0,
                0.0,
                0.0,
                0.0,
                0.0,
                1.0
            ],
            "children": [
                2
            ]
        },
        {
            "name": "RootNode",
            "children": [
                3
            ]
        },
        {
            "name": "pava_low_UV:pava6_1",
            "matrix": [
                1.0,
                0.0,
                0.0,
                0.0,
                0.0,
                1.0,
                0.0,
                0.0,
                0.0,
                0.0,
                1.0,
                0.0,
                3.74786114692688,
                0.3370368480682373,
                1.3216345310211182,
                1.0
            ],
            "children": [
                4
            ]
        },
        {
            "name": "pava_low_UV:pava6_1_pava_low_UV_Pava_0",
            "mesh": 0
        }
    ],
    "samplers": [
        {
            "magFilter": 9729,
            "minFilter": 9987
        }
    ],
    "scenes": [
        {
            "nodes": [
                0
            ]
        }
    ],
    "textures": [
        {
            "source": 0,
            "sampler": 0
        },
        {
            "source": 1,
            "sampler": 0
        },
        {
            "source": 2,
            "sampler": 0
        }
    ],
    "scene": 0
}