{
  "accessors": [
    {
      "bufferView": 2,
      "componentType": 5126,
      "count": 54,
      "max": [
        -2.056792974472046,
        -4.141242027282715,
        4.573223114013672
      ],
      "min": [
        -2.603472948074341,
        -4.68792200088501,
        4.0189619064331055
      ],
      "type": "VEC3"
    },
    {
      "bufferView": 2,
      "byteOffset": 648,
      "componentType": 5126,
      "count": 54,
      "max": [
        0.960521399974823,
        0.960521399974823,
        1.0
      ],
      "min": [
        -0.960521399974823,
        -0.960521399974823,
        -1.0
      ],
      "type": "VEC3"
    },
    {
      "bufferView": 1,
      "componentType": 5126,
      "count": 54,
      "max": [
        0.9884570240974426,
        0.990215003490448
      ],
      "min": [
        0.07005999982357025,
        0.7101070284843445
      ],
      "type": "VEC2"
    },
    {
      "bufferView": 0,
      "componentType": 5125,
      "count": 144,
      "type": "SCALAR"
    },
    {
      "bufferView": 2,
      "byteOffset": 1296,
      "componentType": 5126,
      "count": 10572,
      "max": [
        6.120409965515137,
        5.585237979888916,
        11.5630464553833
      ],
      "min": [
        -5.66445779800415,
        -7.134667873382568,
        -0.889494001865387
      ],
      "type": "VEC3"
    },
    {
      "bufferView": 2,
      "byteOffset": 128160,
      "componentType": 5126,
      "count": 10572,
      "max": [
        0.99978107213974,
        0.9997656941413879,
        1.0
      ],
      "min": [
        -0.99978107213974,
        -0.9997656941413879,
        -1.0
      ],
      "type": "VEC3"
    },
    {
      "bufferView": 1,
      "byteOffset": 432,
      "componentType": 5126,
      "count": 10572,
      "max": [
        0.9950000047683716,
        0.9934530258178711
      ],
      "min": [
        0.004999999888241291,
        0.004999999888241291
      ],
      "type": "VEC2"
    },
    {
      "bufferView": 0,
      "byteOffset": 576,
      "componentType": 5125,
      "count": 35109,
      "type": "SCALAR"
    }
  ],
  "asset": {
    "extras": {
      "author": "Dasha Klyusova (https://sketchfab.com/AnoFail)",
      "license": "CC-BY-4.0 (http://creativecommons.org/licenses/by/4.0/)",
      "source": "https://sketchfab.com/3d-models/hollow-knight-5a76d93e39984f829abd6f406562265b",
      "title": "Hollow Knight"
    },
    "generator": "Sketchfab-12.68.0",
    "version": "2.0"
  },
  "bufferViews": [
    {
      "buffer": 0,
      "byteLength": 141012,
      "name": "floatBufferViews",
      "target": 34963
    },
    {
      "buffer": 0,
      "byteLength": 85008,
      "byteOffset": 141012,
      "byteStride": 8,
      "name": "floatBufferViews",
      "target": 34962
    },
    {
      "buffer": 0,
      "byteLength": 255024,
      "byteOffset": 226020,
      "byteStride": 12,
      "name": "floatBufferViews",
      "target": 34962
    }
  ],
  "buffers": [
    {
      "byteLength": 481044,
      "uri": "scene.bin"
    }
  ],
  "extensionsUsed": [
    "KHR_materials_unlit"
  ],
  "images": [
    {
      "uri": "textures/None.001_baseColor.png"
    },
    {
      "uri": "textures/None.001_emissive.png"
    }
  ],
  "materials": [
    {
      "doubleSided": true,
      "extensions": {
        "KHR_materials_unlit": {}
      },
      "name": "null",
      "pbrMetallicRoughness": {
        "baseColorFactor": [
          0.356947357961397,
          0.674457008236147,
          0.7511371806237102,
          1.0
        ],
        "metallicFactor": 0.0
      }
    },
    {
      "doubleSided": true,
      "emissiveFactor": [
        0.1987716540148157,
        0.1987716540148157,
        0.1987716540148157
      ],
      "emissiveTexture": {
        "index": 1
      },
      "extensions": {
        "KHR_materials_unlit": {}
      },
      "name": "None.001",
      "pbrMetallicRoughness": {
        "baseColorTexture": {
          "index": 0
        },
        "metallicFactor": 0.0
      }
    }
  ],
  "meshes": [
    {
      "name": "Object_0",
      "primitives": [
        {
          "attributes": {
            "NORMAL": 1,
            "POSITION": 0,
            "TEXCOORD_0": 2
          },
          "indices": 3,
          "material": 0,
          "mode": 4
        }
      ]
    },
    {
      "name": "Object_1",
      "primitives": [
        {
          "attributes": {
            "NORMAL": 5,
            "POSITION": 4,
            "TEXCOORD_0": 6
          },
          "indices": 7,
          "material": 1,
          "mode": 4
        }
      ]
    }
  ],
  "nodes": [
    {
      "children": [
        1
      ],
      "matrix": [
        0.06839451938867569,
        0.0,
        0.0,
        0.0,
        0.0,
        1.5186634036695887e-17,
        -0.06839451938867569,
        0.0,
        0.0,
        0.06839451938867569,
        1.5186634036695887e-17,
        0.0,
        0.0,
        0.0,
        0.0,
        1.0
      ],
      "name": "Sketchfab_model"
    },
    {
      "children": [
        2,
        3
      ],
      "name": "v3.obj.cleaner.materialmerger.gles"
    },
    {
      "mesh": 0,
      "name": "Object_2"
    },
    {
      "mesh": 1,
      "name": "Object_3"
    }
  ],
  "samplers": [
    {
      "magFilter": 9729,
      "minFilter": 9987,
      "wrapS": 10497,
      "wrapT": 10497
    }
  ],
  "scene": 0,
  "scenes": [
    {
      "name": "Sketchfab_Scene",
      "nodes": [
        0
      ]
    }
  ],
  "textures": [
    {
      "sampler": 0,
      "source": 0
    },
    {
      "sampler": 0,
      "source": 1
    }
  ]
}
